<svg width="800" height="800" viewBox="0 0 800 800" fill="none" xmlns="http://www.w3.org/2000/svg">
<g clip-path="url(#clip0_6_4)">
<path d="M728.459 143.807H56.5559C51.7221 143.807 46.4048 144.29 41.571 145.257C36.7372 146.224 31.9033 147.674 27.0695 150.091C22.719 152.024 18.3686 155.408 14.9849 158.792C11.6012 162.175 8.21752 166.526 6.28399 170.876C3.86707 175.227 2.41692 180.06 1.45015 185.378C0.483384 190.211 0.483384 195.529 0 200.363V599.154C0 603.988 0.483384 609.305 1.45015 614.139C2.41692 618.973 3.86707 623.807 6.28399 628.641C8.70091 632.991 11.6012 637.341 14.9849 640.725C18.3686 644.109 22.719 647.492 27.0695 649.426C31.4199 651.843 36.2538 653.293 41.571 654.26C46.4048 655.227 51.7221 655.227 56.5559 655.71H743.444C748.278 655.71 753.595 655.227 758.429 654.26C763.263 653.293 768.097 651.843 772.931 649.426C777.281 647.009 781.631 644.109 785.015 640.725C788.399 637.341 791.782 632.991 793.716 628.641C796.133 624.29 797.583 619.456 798.55 614.139C799.517 609.305 799.517 603.988 800 599.154V592.387V215.347V207.13V200.363C800 195.529 799.517 190.211 798.55 185.378C797.583 180.544 796.133 175.71 793.716 170.876C791.299 166.526 788.399 162.175 785.015 158.792C781.631 155.408 777.281 152.024 772.931 150.091C768.58 147.674 763.746 146.224 758.429 145.257C753.595 144.29 748.278 144.29 743.444 143.807H728.459Z" fill="black"/>
<path d="M728.459 160.725H743.444C747.311 160.725 751.662 161.208 756.012 161.692C759.879 162.175 762.779 163.142 765.68 164.592C768.58 166.042 770.997 167.976 773.414 170.393C775.831 172.81 777.764 175.227 779.215 178.127C780.665 181.027 781.631 183.928 782.115 187.795C783.082 192.145 783.082 196.495 783.082 200.363V599.154C783.082 603.021 782.598 607.372 782.115 611.722C781.631 615.106 780.665 618.489 779.215 621.39C777.764 624.29 775.831 626.707 773.414 629.124C770.997 631.541 768.58 633.474 765.68 634.925C762.779 636.375 759.879 637.341 756.012 637.825C751.662 638.792 747.311 638.792 743.444 638.792H56.5559C53.1722 638.792 48.3384 638.308 43.9879 637.825C40.6043 637.341 37.2206 636.375 34.3203 634.441C31.42 632.991 29.003 631.057 26.5861 628.641C24.1692 626.224 22.2357 623.807 20.7855 620.906C19.3354 618.006 18.3686 615.106 17.8852 611.239C16.9185 606.888 16.9185 602.538 16.9185 598.671V207.13V200.363C16.9185 196.495 17.4018 192.145 17.8852 187.795C18.3686 184.411 19.3354 181.027 20.7855 178.127C22.2357 175.227 24.1692 172.81 26.5861 170.393C29.003 167.976 31.42 166.042 34.3203 164.592C37.2206 163.142 40.1209 162.175 43.9879 161.692C48.3384 160.725 52.6889 160.725 56.5559 160.725H728.459Z" fill="white"/>
<path d="M218.489 315.891C225.257 307.19 230.09 295.589 228.64 283.988C218.489 284.471 206.405 290.755 199.154 298.973C192.87 306.223 187.069 318.308 188.519 329.426C200.121 330.876 211.239 324.592 218.489 315.891ZM228.64 332.326C212.205 331.359 198.187 341.51 190.453 341.51C182.719 341.51 170.634 332.81 157.583 332.81C140.665 333.293 125.196 342.477 116.495 357.945C99.0935 388.399 111.661 433.353 129.063 458.006C137.281 470.091 147.432 483.625 160.483 483.142C173.051 482.658 177.885 474.924 192.87 474.924C207.855 474.924 212.205 483.142 225.74 482.658C239.275 482.175 247.976 470.574 256.193 458.006C265.861 443.988 269.728 430.453 269.728 429.97C269.245 429.486 243.142 419.819 243.142 389.849C242.658 364.713 263.444 352.628 264.411 352.145C253.293 334.743 234.924 332.81 228.64 332.326Z" fill="black"/>
<path d="M370.755 298.006C406.526 298.006 431.178 322.659 431.178 357.946C431.178 393.716 406.042 418.369 369.788 418.369H330.634V480.725H302.115V298.006H370.755ZM330.634 394.683H363.021C387.674 394.683 401.692 381.148 401.692 358.429C401.692 335.227 387.674 322.175 363.021 322.175H330.151V394.683H330.634ZM438.429 443.505C438.429 420.302 456.314 405.801 488.217 403.867L524.955 401.934V391.783C524.955 376.798 514.804 368.097 498.369 368.097C482.417 368.097 472.749 375.831 470.332 387.432H444.23C445.68 363.263 466.465 345.378 499.335 345.378C531.722 345.378 552.508 362.296 552.508 389.366V481.209H526.405V459.456H525.921C518.187 474.441 501.269 483.625 483.867 483.625C456.798 483.625 438.429 467.19 438.429 443.505ZM524.955 431.42V420.786L492.085 422.719C475.65 423.686 466.465 430.937 466.465 442.538C466.465 454.139 476.133 461.873 490.634 461.873C509.97 461.873 524.955 448.822 524.955 431.42ZM576.677 530.514V508.278C578.61 508.761 583.444 508.761 585.378 508.761C597.946 508.761 604.713 503.444 609.063 489.909C609.063 489.426 611.48 481.692 611.48 481.692L563.142 348.278H592.628L626.465 457.039H626.949L660.785 348.278H689.788L640 488.943C628.399 521.329 615.347 531.48 587.795 531.48C585.861 530.997 579.094 530.997 576.677 530.514Z" fill="black"/>
</g>
<defs>
<clipPath id="clip0_6_4">
<rect width="800" height="800" fill="white"/>
</clipPath>
</defs>
</svg>
