<svg width="759" height="524" viewBox="0 0 759 524" fill="none" xmlns="http://www.w3.org/2000/svg">
<path d="M705.349 8H53.621C28.4252 8 8 28.4249 8 53.6203V470.72C8 495.915 28.4252 516.34 53.621 516.34H705.349C730.545 516.34 750.97 495.915 750.97 470.72V53.6203C750.97 28.4249 730.545 8 705.349 8Z" fill="white" stroke="black" stroke-width="15"/>
<path fill-rule="evenodd" clip-rule="evenodd" d="M278.453 404.122V423.371V442.622H270.016V437.947C267.34 441.415 263.279 443.59 257.761 443.59C246.879 443.59 238.35 435.136 238.35 423.371C238.35 411.617 246.879 403.154 257.761 403.154C263.279 403.154 267.34 405.329 270.016 408.796V404.122H278.453ZM258.81 411.046C251.507 411.046 247.037 416.605 247.037 423.371C247.037 430.139 251.507 435.698 258.81 435.698C265.789 435.698 270.499 430.378 270.499 423.371C270.499 416.365 265.789 411.046 258.81 411.046ZM563.57 423.371C563.57 416.605 568.039 411.046 575.342 411.046C582.33 411.046 587.032 416.365 587.032 423.371C587.032 430.378 582.33 435.698 575.342 435.698C568.039 435.698 563.57 430.139 563.57 423.371ZM594.996 388.661V423.371V442.622H586.55V437.947C583.872 441.415 579.812 443.59 574.293 443.59C563.412 443.59 554.882 435.136 554.882 423.371C554.882 411.617 563.412 403.154 574.293 403.154C579.812 403.154 583.872 405.329 586.55 408.796V388.661H594.996ZM383.184 410.65C388.62 410.65 392.113 414.032 393.006 419.989H372.87C373.771 414.43 377.171 410.65 383.184 410.65ZM364.024 423.371C364.024 411.368 371.977 403.154 383.351 403.154C394.223 403.154 401.693 411.368 401.777 423.371C401.777 424.496 401.693 425.548 401.61 426.589H372.796C374.013 433.522 378.965 436.021 384.4 436.021C388.294 436.021 392.439 434.564 395.691 431.992L399.826 438.196C395.115 442.142 389.763 443.59 383.918 443.59C372.303 443.59 364.024 435.616 364.024 423.371ZM485.229 423.371C485.229 416.605 489.699 411.046 497.002 411.046C503.98 411.046 508.692 416.365 508.692 423.371C508.692 430.378 503.98 435.698 497.002 435.698C489.699 435.698 485.229 430.139 485.229 423.371ZM516.645 404.122V423.371V442.622H508.208V437.947C505.523 441.415 501.472 443.59 495.952 443.59C485.07 443.59 476.54 435.136 476.54 423.371C476.54 411.617 485.07 403.154 495.952 403.154C501.472 403.154 505.523 405.329 508.208 408.796V404.122H516.645ZM437.579 423.371C437.579 435.053 445.775 443.59 458.282 443.59C464.126 443.59 468.02 442.3 472.239 438.998L468.187 432.232C465.019 434.491 461.692 435.698 458.031 435.698C451.294 435.616 446.342 430.784 446.342 423.371C446.342 415.96 451.294 411.128 458.031 411.046C461.692 411.046 465.019 412.253 468.187 414.512L472.239 407.744C468.02 404.444 464.126 403.154 458.282 403.154C445.775 403.154 437.579 411.691 437.579 423.371ZM536.131 408.796C538.323 405.412 541.492 403.154 546.361 403.154C548.07 403.154 550.505 403.477 552.373 404.204L549.771 412.096C547.987 411.368 546.202 411.128 544.494 411.128C538.973 411.128 536.214 414.668 536.214 421.039V442.622H527.768V404.122H536.131V408.796ZM320.184 407.182C316.123 404.527 310.53 403.154 304.359 403.154C294.528 403.154 288.2 407.828 288.2 415.48C288.2 421.759 292.912 425.63 301.591 426.838L305.577 427.4C310.204 428.047 312.388 429.254 312.388 431.429C312.388 434.407 309.303 436.103 303.542 436.103C297.697 436.103 293.479 434.251 290.635 432.074L286.658 438.593C291.285 441.976 297.13 443.59 303.458 443.59C314.664 443.59 321.159 438.353 321.159 431.024C321.159 424.256 316.049 420.716 307.602 419.509L303.625 418.937C299.974 418.457 297.047 417.739 297.047 415.157C297.047 412.336 299.806 410.65 304.433 410.65C309.387 410.65 314.181 412.502 316.532 413.95L320.184 407.182ZM418.829 408.796C421.012 405.412 424.181 403.154 429.049 403.154C430.759 403.154 433.194 403.477 435.061 404.204L432.459 412.096C430.676 411.368 428.891 411.128 427.181 411.128C421.662 411.128 418.903 414.668 418.903 421.039V442.622H410.466V404.122H418.829V408.796ZM357.045 404.122H343.246V392.441H334.717V404.122H326.846V411.773H334.717V429.337C334.717 438.271 338.21 443.59 348.19 443.59C351.851 443.59 356.07 442.465 358.746 440.612L356.311 433.439C353.793 434.887 351.033 435.616 348.841 435.616C344.622 435.616 343.246 433.034 343.246 429.17V411.773H357.045V404.122ZM230.887 418.457V442.622H222.357V421.196C222.357 414.668 219.598 411.046 213.837 411.046C208.233 411.046 204.34 414.595 204.34 421.279V442.622H195.81V421.196C195.81 414.668 192.976 411.046 187.373 411.046C181.602 411.046 177.868 414.595 177.868 421.279V442.622H169.347V404.122H177.794V408.869C180.962 404.362 185.013 403.154 189.157 403.154C195.085 403.154 199.304 405.736 201.98 410.003C205.557 404.602 210.668 403.07 215.621 403.154C225.043 403.237 230.887 409.358 230.887 418.457Z" fill="#231F20"/>
<path d="M445.264 338.701H317.387V110.688H445.264V338.701Z" fill="#FF5F00"/>
<path d="M325.5 224.7C325.5 178.446 347.326 137.245 381.316 110.693C356.461 91.2774 325.091 79.6887 290.999 79.6887C210.289 79.6887 144.863 144.612 144.863 224.7C144.863 304.788 210.289 369.711 290.999 369.711C325.091 369.711 356.461 358.122 381.316 338.706C347.326 312.155 325.5 270.954 325.5 224.7Z" fill="#EB001B"/>
<path d="M617.78 224.7C617.78 304.788 552.355 369.711 471.645 369.711C437.551 369.711 406.182 358.122 381.316 338.706C415.316 312.155 437.144 270.954 437.144 224.7C437.144 178.446 415.316 137.245 381.316 110.693C406.182 91.2774 437.551 79.6887 471.645 79.6887C552.355 79.6887 617.78 144.612 617.78 224.7Z" fill="#F79E1B"/>
</svg>
